<?xml version="1.0" standalone="no"?>
<!DOCTYPE svg PUBLIC "-//W3C//DTD SVG 20010904//EN"
 "http://www.w3.org/TR/2001/REC-SVG-20010904/DTD/svg10.dtd">
<svg version="1.0" xmlns="http://www.w3.org/2000/svg"
 width="350.000000pt" height="250.000000pt" viewBox="0 0 238.000000 194.000000"
 preserveAspectRatio="xMidYMid meet">

<g transform="translate(0.000000,194.000000) scale(0.100000,-0.100000)"
fill="#000000" stroke="none">
<path d="M903 1402 l-212 -137 -1 -323 0 -323 -30 16 c-36 18 -40 19 -40 2 0
-8 11 -20 25 -27 14 -7 25 -16 25 -20 0 -3 -23 -12 -51 -19 -27 -7 -48 -15
-46 -18 3 -2 32 3 65 11 56 15 62 15 103 -3 24 -11 47 -17 51 -15 15 9 8 23
-14 30 -21 7 -20 8 12 15 84 18 338 29 465 19 179 -13 245 -21 245 -29 0 -4
-39 -26 -88 -50 -104 -51 -126 -66 -117 -80 4 -7 54 13 137 55 116 59 134 66
171 61 36 -5 159 -39 222 -61 11 -4 -2 5 -30 20 -55 30 -208 84 -237 84 -17 0
-18 16 -18 258 l0 257 -28 60 c-26 54 -45 74 -186 190 -86 72 -161 131 -166
133 -6 2 -11 -161 -13 -435 l-2 -438 -3 453 c-1 354 -5 452 -14 451 -7 0 -108
-62 -225 -137z"/>
<path d="M1556 995 c-3 -10 21 -27 76 -55 72 -36 98 -42 98 -22 0 9 -50 38
-117 67 -41 19 -53 21 -57 10z"/>
<path d="M482 890 c-100 -49 -182 -94 -182 -100 0 -13 198 -112 210 -105 20
12 8 22 -70 60 -44 21 -80 42 -80 45 0 3 67 39 149 79 81 41 153 82 160 93 6
10 7 18 3 18 -5 0 -90 -40 -190 -90z"/>
<path d="M1820 860 c0 -6 25 -22 55 -37 30 -15 55 -30 55 -33 0 -3 -47 -29
-104 -57 -58 -29 -110 -61 -116 -72 -10 -20 -9 -20 27 -4 86 35 253 124 253
133 0 11 -136 80 -157 80 -7 0 -13 -5 -13 -10z"/>
<path d="M505 531 c-22 -11 -35 -19 -30 -19 14 -1 93 36 80 37 -5 0 -28 -8
-50 -18z"/>
<path d="M920 488 c0 -16 81 -58 111 -58 28 0 15 16 -29 39 -58 29 -82 34 -82
19z"/>
</g>
</svg>
