<svg id="Camada_1" data-name="Camada 1" xmlns="http://www.w3.org/2000/svg" viewBox="0 0 59.85 48.24"><defs><style>.cls-1,.cls-2{fill:#c6c6c5;}.cls-2{font-size:3.79px;font-family:BebasNeue-Regular, Bebas Neue;letter-spacing:0.66em;}.cls-3{letter-spacing:0.66em;}.cls-4{fill:#fff;}.cls-5{fill:#0b1742;}</style></defs><path class="cls-1" d="M42.79,54.61H41.61l1.58-5.27-1.34-4.68h.8a.41.41,0,0,1,.4.34l.72,2.65L44.45,45a.41.41,0,0,1,.4-.34h.8l-1.28,4.69,1.48,5.26H44.74L43.81,51Z" transform="translate(-6.66 -12.46)"/><text class="cls-2" transform="translate(0 47.48)">EMPREENDIMEN<tspan class="cls-3" x="48.06" y="0">T</tspan><tspan x="51.93" y="0">OS</tspan></text><path class="cls-4" d="M9.8,44.66H9.19V49h-1c-.24,0-.35-.07-.35-.36v-4H7.23a.39.39,0,0,0-.42.4v9.55h1V50.05H9a.26.26,0,0,1,.24.23v4.33h1V45.06A.38.38,0,0,0,9.8,44.66Zm52.43,0v5.73l-1-5.17c0-.29-.15-.56-.72-.56H60v10h1V49.05L62.11,54a.66.66,0,0,0,.68.64h.47v-10Zm-36,0h-.55l-1.51,10h1.12l.9-6.85.59,4.51H26l-.12.92h1l.18,1.42h1.13L26.74,45.2C26.7,44.93,26.63,44.66,26.2,44.66Z" transform="translate(-6.66 -12.46)"/><path class="cls-1" d="M56,30.93,44.8,25.41l-.1,0v.9l10.15,5L35,41.08,15.22,31.3,23.9,27v-.87a.39.39,0,0,0-.18,0L14.1,30.93a.41.41,0,0,0,0,.74L34.85,41.91A.41.41,0,0,0,35,42a.39.39,0,0,0,.18,0L56,31.67a.41.41,0,0,0,0-.74Z" transform="translate(-6.66 -12.46)"/><polygon class="cls-5" points="36.86 7.68 38.11 10.41 36.81 9.74 36.86 7.68"/><path class="cls-4" d="M52.49,38.4,51.62,38c-.38-.2-.77-.39-1.17-.56-.69-.3-1.4-.55-2.11-.79A33.47,33.47,0,0,0,44,35.56,48.3,48.3,0,0,0,35,35a57.06,57.06,0,0,0-8.95.82,37.11,37.11,0,0,0-5.11,1.29l-.25.08-.1,0a21,21,0,0,0-3.1,1.28.1.1,0,0,0,0,.14.09.09,0,0,0,.09,0h0a20.56,20.56,0,0,1,3.1-1.27,36,36,0,0,1,5.43-1.18A57.47,57.47,0,0,1,35,35.63a72.69,72.69,0,0,1,8.85.75,38.46,38.46,0,0,1,7.91,1.89c.23.1.45.21.66.32a.11.11,0,0,0,.14-.05A.1.1,0,0,0,52.49,38.4Z" transform="translate(-6.66 -12.46)"/><path class="cls-4" d="M34.77,12.49a.2.2,0,0,0-.21,0L23.79,19.43a.21.21,0,0,0-.09.18V36.4a.19.19,0,0,0,.08.17.25.25,0,0,0,.12,0H24a52,52,0,0,1,10.71-1.09h0a.21.21,0,0,0,.21-.21V12.67A.19.19,0,0,0,34.77,12.49Z" transform="translate(-6.66 -12.46)"/><path class="cls-4" d="M43.53,20h0a.9.9,0,0,0-.19-.21l-7.81-6.49a.22.22,0,0,0-.22,0,.21.21,0,0,0-.12.19V35.3a.2.2,0,0,0,.06.15.28.28,0,0,0,.15.06c.07,0,6.17-.18,9.15.78h.07a.19.19,0,0,0,.12,0,.19.19,0,0,0,.08-.16V22.9Z" transform="translate(-6.66 -12.46)"/><path class="cls-1" d="M24.92,21.74l.09,0,7.76-4.22a.2.2,0,0,0,.11-.27.22.22,0,0,0-.28-.11l-7.76,4.22a.22.22,0,0,0-.11.28A.22.22,0,0,0,24.92,21.74Zm7.68-.54-7.76,3.23a.2.2,0,0,0,.08.39.15.15,0,0,0,.09,0l7.76-3.23a.2.2,0,0,0,.11-.27A.2.2,0,0,0,32.6,21.2Zm0,3.64-7.76,2.67a.22.22,0,0,0-.11.28.22.22,0,0,0,.19.12l.09,0,7.76-2.67a.21.21,0,0,0,.11-.28A.21.21,0,0,0,32.6,24.84Zm0,4.33-7.76,2.11a.21.21,0,0,0-.11.27.22.22,0,0,0,.19.13l.09,0,7.76-2.11a.2.2,0,0,0,.11-.27A.22.22,0,0,0,32.6,29.17Z" transform="translate(-6.66 -12.46)"/><path class="cls-1" d="M36.74,17.65,43,22.2a.08.08,0,0,0,.07,0,.17.17,0,0,0,.15-.12.22.22,0,0,0-.09-.27l-6.26-4.55a.15.15,0,0,0-.22.1A.22.22,0,0,0,36.74,17.65Zm6.4,7.26-6.26-3.69a.15.15,0,0,0-.22.1.24.24,0,0,0,.08.28L43,25.29l.07,0a.18.18,0,0,0,.15-.12A.23.23,0,0,0,43.14,24.91Zm0,3.09-6.26-2.67a.15.15,0,0,0-.22.1.22.22,0,0,0,.08.27L43,28.37a.08.08,0,0,0,.07,0,.17.17,0,0,0,.15-.12A.22.22,0,0,0,43.14,28Zm0,3.08-6.08-1.7a.16.16,0,0,0-.23.1.24.24,0,0,0,.09.28L43,31.46l.07,0a.18.18,0,0,0,.15-.12A.23.23,0,0,0,43.14,31.08Z" transform="translate(-6.66 -12.46)"/><polygon class="cls-1" points="36.85 7.64 38.1 10.38 36.8 9.71 36.85 7.64"/></svg>